<?xml version="1.0" encoding="utf-8"?>
<!-- Generator: Adobe Illustrator 19.0.0, SVG Export Plug-In . SVG Version: 6.00 Build 0)  -->
<svg version="1.1" id="Layer_1" xmlns="http://www.w3.org/2000/svg" xmlns:xlink="http://www.w3.org/1999/xlink" x="0px" y="0px"
	 viewBox="0 0 445 445" style="enable-background:new 0 0 445 445;" xml:space="preserve">
<style type="text/css">
	.st0{fill:none;stroke:#FFFFFF;stroke-width:18;stroke-miterlimit:10;}
</style>
<g>
	<path class="st0" d="M430,84.2c0-36.3-32.8-69.2-69.2-69.2H84.2C47.8,15,15,47.9,15,84.2v276.6c0,36.3,32.8,69.2,69.2,69.2h138.3
		V273.2h-50.7v-69.2h50.7v-26.9c0-46.5,34.9-88.3,77.8-88.3h55.9V158h-55.9c-6.1,0-13.3,7.4-13.3,18.6v27.6h69.2v69.2h-69.2V430
		h73.8c36.4,0,69.2-32.8,69.2-69.2V84.2z M430,84.2"/>
</g>
</svg>
