<?xml version="1.0" encoding="utf-8"?>
<!-- Generator: Adobe Illustrator 19.0.0, SVG Export Plug-In . SVG Version: 6.00 Build 0)  -->
<svg version="1.1" id="Layer_1" xmlns="http://www.w3.org/2000/svg" xmlns:xlink="http://www.w3.org/1999/xlink" x="0px" y="0px"
	 viewBox="0 0 512 512" style="enable-background:new 0 0 512 512;" xml:space="preserve">
<style type="text/css">
	.st0{fill:#BDBDBD;}
	.st1{fill:#3F3F3F;}
	.st2{opacity:0.15;}
	.st3{fill:#212121;}
	.st4{fill:#F46F16;}
	.st5{fill:#EEEEEE;}
	.st6{fill:#F58F15;}
	.st7{fill:#F5F5F5;}
</style>
<g id="XMLID_33_">
	<g id="XMLID_36_">
		<path id="XMLID_65_" class="st0" d="M512,89.7v332.7c0,49.5-40.1,89.6-89.6,89.6H89.6C40.1,512,0,471.9,0,422.4V89.7
			C0,40.1,40.1,0,89.6,0h332.8c49.5,0,89.5,40.1,89.6,89.6C512,89.7,512,89.7,512,89.7z"/>
	</g>
	<g id="XMLID_37_">
	</g>
</g>
<g id="XMLID_202_">
	<g id="XMLID_205_">
		<path id="XMLID_64_" class="st1" d="M512,205.3v217.1c0,49.5-40.1,89.6-89.6,89.6H89.6C40.1,512,0,471.9,0,422.4V307.7
			c128,0,256-50.7,256-50.7S384,205.3,512,205.3z"/>
	</g>
	<g id="XMLID_206_">
	</g>
</g>
<g id="XMLID_16_" class="st2">
	<g id="XMLID_46_">
		<path id="XMLID_63_" class="st3" d="M512,253v169.1c0,49.5-40.1,89.6-89.6,89.6H297l-43.9-43.9c1.6-1.7,129.6-144.1,143.7-250.9
			c22-4.2,45.3-7.7,69.3-9.8L512,253L512,253z"/>
		<path id="XMLID_62_" class="st3" d="M362.9,104l103.2,103.2c-23.9,2.1-47.3,5.6-69.3,9.8c0.8-6.2,1.3-12.3,1.3-18.2
			C398,162.4,384.8,129.4,362.9,104z"/>
	</g>
	<g id="XMLID_61_">
	</g>
</g>
<g id="XMLID_1_">
	<g id="XMLID_6_">
		<path id="XMLID_60_" class="st4" d="M398.4,199.5L398.4,199.5c0,108.6-144.8,268.9-144.8,268.9v-31.1
			c5.6-6.2,127.7-143.6,127.7-237.4c0-0.1,0-0.3,0-0.4h0.4h0.4H398.4z"/>
		<path id="XMLID_59_" class="st4" d="M398.4,199.5h-16.3h-0.4h-0.4C381.1,129,324.1,72.1,253.6,72V54.7
			C333.7,54.7,398.4,119.4,398.4,199.5z"/>
		<path id="XMLID_58_" class="st5" d="M381.3,199.5c0,0.1,0,0.3,0,0.4c0,93.8-122.1,231.1-127.7,237.4v-30c0.1,0.1,0.2,0.2,0.2,0.2
			s111.7-123.6,111.7-207.4c0-0.2,0-0.4,0-0.6h0H381.3z"/>
		<path id="XMLID_57_" class="st5" d="M381.3,199.5h-15.9h0C365.1,138,315.3,88.4,253.8,88.4c-0.1,0-0.1,0-0.2,0V72
			C324.1,72.1,381.1,129,381.3,199.5z"/>
		<path id="XMLID_56_" class="st4" d="M365.4,199.5c0,0.2,0,0.4,0,0.6c0,83.7-111.7,207.4-111.7,207.4s-0.1-0.1-0.2-0.2v-31.4
			c0.1,0.1,0.2,0.2,0.2,0.2s95-105.2,95-176.4c0,0,0-0.1,0-0.1H365.4z"/>
		<path id="XMLID_55_" class="st4" d="M365.4,199.5h-16.6c0-52.5-42.5-94.9-95-94.9c-0.1,0-0.1,0-0.2,0V88.4c0.1,0,0.1,0,0.2,0
			C315.3,88.4,365.1,138,365.4,199.5z"/>
		<path id="XMLID_54_" class="st5" d="M348.8,199.5C348.8,199.5,348.8,199.5,348.8,199.5c0,71.3-95,176.5-95,176.5s-0.1-0.1-0.2-0.2
			v-30c0.3,0.4,0.5,0.6,0.5,0.6s78.6-87.1,78.6-146.1c0-0.3,0-0.6,0-0.9h0H348.8z"/>
		<path id="XMLID_53_" class="st5" d="M348.8,199.5h-16h0c-0.5-43.1-35.4-77.8-78.6-77.8c-0.2,0-0.3,0-0.5,0v-17.1
			c0.1,0,0.1,0,0.2,0C306.3,104.6,348.7,147,348.8,199.5z"/>
		<path id="XMLID_52_" class="st4" d="M332.8,199.5c0,0.3,0,0.6,0,0.9c0,59-78.6,146.1-78.6,146.1s-0.2-0.2-0.5-0.6v-31.6
			c0.3,0.3,0.4,0.4,0.4,0.4s61.9-68.5,61.9-114.9c0-0.1,0-0.2,0-0.3h0.3v0h16H332.8z"/>
		<path id="XMLID_45_" class="st4" d="M332.8,199.5h-0.6h-16v0h-0.3c-0.2-34.1-27.8-61.6-61.9-61.6c-0.1,0-0.3,0-0.4,0v-16.3
			c0.2,0,0.3,0,0.5,0C297.3,121.7,332.3,156.4,332.8,199.5z"/>
		<path id="XMLID_44_" class="st5" d="M315.9,199.5c0,0.1,0,0.2,0,0.3c0,46.4-61.9,114.9-61.9,114.9s-0.1-0.1-0.4-0.4v-68.1
			c0.1,0,0.3,0,0.4,0c25.1,0,45.4-20.3,45.4-45.4c0-0.4,0-0.9,0-1.3h0H315.9z"/>
		<path id="XMLID_43_" class="st5" d="M315.9,199.5h-16.4h0c-0.7-24.5-20.8-44.2-45.4-44.2c-0.1,0-0.3,0-0.4,0v-17.4
			c0.1,0,0.3,0,0.4,0C288.1,137.9,315.7,165.4,315.9,199.5z"/>
		<path id="XMLID_42_" class="st4" d="M299.4,199.5c0,0.4,0,0.8,0,1.3c0,25.1-20.3,45.4-45.4,45.4c-0.1,0-0.3,0-0.4,0v-90.9
			c0.1,0,0.3,0,0.4,0C278.7,155.3,298.7,175,299.4,199.5z"/>
		<path id="XMLID_41_" class="st6" d="M253.6,437.3v31.1c0,0-144.8-160.3-144.8-268.9v0h16.7c0,0.1,0,0.3,0,0.4
			c0,95.9,127.9,237.6,127.9,237.6S253.5,437.4,253.6,437.3z"/>
		<path id="XMLID_39_" class="st7" d="M253.6,407.2v30c-0.1,0.1-0.2,0.2-0.2,0.2S125.5,295.8,125.5,199.9c0-0.1,0-0.3,0-0.4h16.7h0
			c0,0.2,0,0.4,0,0.6C142.1,281.8,248.6,401.6,253.6,407.2z"/>
		<path id="XMLID_38_" class="st6" d="M253.6,375.8v31.4c-5-5.6-111.5-125.4-111.5-207.2c0-0.2,0-0.4,0-0.6h16.6c0,0,0,0.1,0,0.1
			C158.8,269,249.1,370.7,253.6,375.8z"/>
		<path id="XMLID_22_" class="st7" d="M253.6,345.8v30c-4.6-5.1-94.8-106.8-94.8-176.2c0,0,0-0.1,0-0.1h16.7h0c0,0.3,0,0.6,0,0.9
			C175.5,256.5,246.9,338.2,253.6,345.8z"/>
		<path id="XMLID_17_" class="st6" d="M253.6,314.2v31.6c-6.8-7.6-78.1-89.3-78.1-145.5c0-0.3,0-0.6,0-0.9h16.4h0.2
			c0,0.1,0,0.2,0,0.3C192.1,244.1,248.5,308.4,253.6,314.2z"/>
		<path id="XMLID_15_" class="st7" d="M253.6,246.2v68.1c-5.1-5.8-61.5-70.2-61.5-114.5c0-0.1,0-0.2,0-0.3h16.4h0c0,0.4,0,0.9,0,1.3
			C208.6,225.7,228.7,246,253.6,246.2z"/>
		<path id="XMLID_14_" class="st6" d="M253.6,155.3v90.9c-24.9-0.2-45.1-20.5-45.1-45.4c0-0.4,0-0.9,0-1.3
			C209.3,175.1,229.1,155.5,253.6,155.3z"/>
		<path id="XMLID_13_" class="st7" d="M253.6,137.9v17.4c-24.5,0.2-44.4,19.8-45,44.1h0h-16.4C192.3,165.5,219.7,138.1,253.6,137.9z
			"/>
		<path id="XMLID_12_" class="st6" d="M253.6,121.7v16.3c-33.9,0.2-61.3,27.6-61.5,61.6h-0.2h-16.4
			C175.9,156.5,210.7,121.9,253.6,121.7z"/>
		<path id="XMLID_11_" class="st7" d="M253.6,104.6v17.1c-43,0.3-77.7,34.9-78.1,77.8h0h-16.7C158.8,147.1,201.2,104.7,253.6,104.6z
			"/>
		<path id="XMLID_10_" class="st6" d="M253.6,88.4v16.2c-52.4,0.1-94.8,42.5-94.8,94.9h-16.6C142.5,138.1,192.2,88.5,253.6,88.4z"/>
		<path id="XMLID_9_" class="st7" d="M253.6,72v16.4c-61.5,0.1-111.2,49.7-111.5,111.1h0h-16.7C125.7,128.9,182.8,72,253.4,72
			C253.5,72,253.5,72,253.6,72z"/>
		<path id="XMLID_8_" class="st6" d="M253.6,54.7V72c-0.1,0-0.1,0-0.2,0c-70.6,0-127.7,57-127.9,127.5h-16.7
			C108.8,119.4,173.6,54.7,253.6,54.7z"/>
	</g>
	<g id="XMLID_7_">
	</g>
</g>
</svg>
